# Blender3D v249 OBJ File: ball.blend
# www.blender3d.org
mtllib bullet.mtl
v -1.000000 0.511270 0.200000
v -1.131212 0.200000 0.200000
v -1.131212 0.200000 -0.200000
v -1.000000 0.511270 -0.200000
v -1.131212 -0.200000 0.200000
v -1.131212 -0.200000 -0.200000
v -1.000000 -0.511270 0.200000
v -1.000000 -0.511270 -0.200000
v -1.000000 -0.200000 0.511270
v -0.960477 -0.200000 0.600000
v -0.774694 -0.600000 0.600000
v -0.960477 -0.600000 0.200000
v -1.000000 0.200000 0.511270
v -0.960477 0.200000 0.600000
v -0.960477 0.600000 0.200000
v -0.774694 0.600000 0.600000
v -0.600000 0.774694 0.600000
v -0.600000 0.960477 0.200000
v -0.960477 0.600000 -0.200000
v -0.600000 0.960477 -0.200000
v -0.774694 0.600000 -0.600000
v -0.600000 0.774694 -0.600000
v -1.000000 0.200000 -0.511270
v -0.960477 0.200000 -0.600000
v -1.000000 -0.200000 -0.511270
v -0.960477 -0.200000 -0.600000
v -0.960477 -0.600000 -0.200000
v -0.774694 -0.600000 -0.600000
v -0.600000 -0.960477 -0.200000
v -0.600000 -0.774694 -0.600000
v -0.600000 -0.600000 -0.774694
v -0.200000 -0.960477 -0.600000
v -0.200000 -0.600000 -0.960477
v 0.200000 -0.960477 -0.600000
v 0.200000 -0.600000 -0.960477
v -0.200000 -1.000000 -0.511270
v 0.200000 -1.000000 -0.511270
v 0.511270 -1.000000 -0.200000
v 0.600000 -0.960477 -0.200000
v 0.600000 -0.774694 -0.600000
v 0.600000 -0.960477 0.200000
v 0.511270 -1.000000 0.200000
v 0.200000 -0.960477 0.600000
v 0.600000 -0.774694 0.600000
v 0.200000 -1.000000 0.511270
v 0.200000 -0.600000 0.960477
v 0.600000 -0.600000 0.774694
v 0.200000 -0.511270 1.000000
v 0.511270 -0.200000 1.000000
v 0.600000 -0.200000 0.960477
v 0.511270 0.200000 1.000000
v 0.600000 0.200000 0.960477
v 0.200000 0.511270 1.000000
v 0.200000 0.600000 0.960477
v 0.600000 0.600000 0.774694
v 0.200000 0.960477 0.600000
v 0.600000 0.774694 0.600000
v 0.774694 0.600000 0.600000
v -0.200000 0.960477 0.600000
v -0.200000 0.600000 0.960477
v -0.600000 0.600000 0.774694
v -0.600000 0.200000 0.960477
v -0.200000 0.511270 1.000000
v -0.511270 0.200000 1.000000
v -0.600000 -0.200000 0.960477
v -0.511270 -0.200000 1.000000
v -0.600000 -0.600000 0.774694
v -0.200000 -0.511270 1.000000
v -0.200000 -0.600000 0.960477
v -0.600000 -0.774694 0.600000
v -0.200000 -0.960477 0.600000
v -0.200000 -1.000000 0.511270
v -0.511270 -1.000000 0.200000
v -0.600000 -0.960477 0.200000
v -0.200000 -1.131212 0.200000
v -0.200000 -1.131212 -0.200000
v -0.511270 -1.000000 -0.200000
v 0.200000 -1.131212 0.200000
v 0.200000 -1.131212 -0.200000
v -0.200000 -0.200000 1.131212
v 0.200000 -0.200000 1.131212
v -0.200000 0.200000 1.131212
v 0.200000 0.200000 1.131212
v 0.960477 0.200000 0.600000
v 0.960477 -0.200000 0.600000
v 0.774694 -0.600000 0.600000
v 0.960477 -0.600000 0.200000
v 0.960477 -0.600000 -0.200000
v 0.774694 -0.600000 -0.600000
v 0.600000 -0.600000 -0.774694
v -0.600000 -0.200000 -0.960477
v -0.600000 0.200000 -0.960477
v -0.600000 0.600000 -0.774694
v -0.200000 1.131212 0.200000
v -0.200000 1.131212 -0.200000
v 0.200000 1.131212 -0.200000
v 0.200000 1.131212 0.200000
v -0.200000 1.000000 -0.511270
v 0.200000 1.000000 -0.511270
v 0.511270 1.000000 -0.200000
v -0.511270 1.000000 -0.200000
v 0.511270 1.000000 0.200000
v 0.200000 1.000000 0.511270
v -0.200000 1.000000 0.511270
v -0.511270 1.000000 0.200000
v -0.200000 -0.200000 -1.131212
v 0.200000 -0.200000 -1.131212
v 0.200000 0.200000 -1.131212
v -0.200000 0.200000 -1.131212
v -0.200000 0.511270 -1.000000
v 0.200000 0.511270 -1.000000
v 0.511270 0.200000 -1.000000
v -0.511270 0.200000 -1.000000
v 0.511270 -0.200000 -1.000000
v 0.200000 -0.511270 -1.000000
v -0.200000 -0.511270 -1.000000
v -0.511270 -0.200000 -1.000000
v -0.200000 0.960477 -0.600000
v -0.200000 0.600000 -0.960477
v 0.200000 0.600000 -0.960477
v 0.200000 0.960477 -0.600000
v 1.131212 -0.200000 0.200000
v 1.131212 0.200000 0.200000
v 1.131212 0.200000 -0.200000
v 1.131212 -0.200000 -0.200000
v 1.000000 0.511270 0.200000
v 1.000000 0.511270 -0.200000
v 1.000000 0.200000 -0.511270
v 1.000000 0.200000 0.511270
v 1.000000 -0.200000 -0.511270
v 1.000000 -0.511270 -0.200000
v 1.000000 -0.511270 0.200000
v 1.000000 -0.200000 0.511270
v 0.600000 0.960477 0.200000
v 0.600000 0.960477 -0.200000
v 0.960477 0.600000 -0.200000
v 0.960477 0.600000 0.200000
v 0.600000 -0.200000 -0.960477
v 0.960477 -0.200000 -0.600000
v 0.960477 0.200000 -0.600000
v 0.600000 0.200000 -0.960477
v 0.600000 0.774694 -0.600000
v 0.600000 0.600000 -0.774694
v 0.774694 0.600000 -0.600000
vn -0.890744 -0.232002 0.390759
vn -0.960295 -0.197241 0.197241
vn -0.890744 -0.390759 0.232002
vn -0.817499 -0.563066 0.120823
vn -0.741905 -0.474105 0.474105
vn -0.798212 0.238685 0.553026
vn -0.898587 0.394055 0.192969
vn -0.910306 0.125126 0.394543
vn -0.811762 0.557237 -0.174535
vn -0.756706 0.462233 -0.462233
vn -0.890744 0.390759 -0.232002
vn -0.901120 -0.188086 -0.390545
vn -0.826106 -0.159062 -0.540574
vn -0.898587 -0.394055 -0.192969
vn -0.729789 -0.450545 -0.514145
vn -0.442396 -0.495010 -0.747795
vn -0.537950 -0.703665 -0.464125
vn 0.502884 -0.702994 -0.502884
vn 0.522050 -0.831965 -0.187780
vn 0.158971 -0.825861 -0.540971
vn 0.188086 -0.901120 0.390545
vn 0.394055 -0.898587 0.192969
vn 0.159062 -0.826106 0.540574
vn 0.209143 -0.583850 0.784417
vn 0.462233 -0.462233 0.756706
vn 0.165777 -0.394971 0.903592
vn 0.390545 0.188086 0.901120
vn 0.540574 0.159062 0.826106
vn 0.192969 0.394055 0.898587
vn 0.514145 0.450545 0.729789
vn 0.747795 0.495010 0.442396
vn 0.464125 0.703665 0.537950
vn -0.390545 0.188086 0.901120
vn -0.256752 0.389477 0.884518
vn -0.540574 0.159062 0.826106
vn -0.120823 -0.563066 0.817499
vn -0.232002 -0.390759 0.890744
vn -0.442396 -0.495010 0.747795
vn -0.583850 -0.784417 0.209143
vn -0.394971 -0.903592 0.165777
vn -0.462233 -0.756706 0.462233
vn -0.165777 -0.903592 0.394971
vn -0.194861 -0.961241 0.194861
vn -0.155675 -0.236274 0.959105
vn -0.394971 -0.165777 0.903592
vn 0.725547 -0.485672 0.487503
vn 0.450545 -0.729789 0.514145
vn 0.478835 -0.476302 -0.737419
vn 0.747795 -0.442396 -0.495010
vn -0.259682 -0.807672 -0.529344
vn -0.540971 -0.825861 -0.158971
vn -0.502884 0.502884 -0.702994
vn -0.514145 0.729789 -0.450545
vn -0.729881 0.512101 0.452742
vn -0.487503 0.485672 0.725547
vn -0.462233 0.756706 0.462233
vn -0.975433 0.155675 0.155675
vn -0.971801 -0.129673 -0.196814
vn -0.903592 0.165777 -0.394971
vn -0.959105 0.236274 -0.155675
vn -0.168950 0.168950 0.971007
vn 0.389477 0.884518 -0.256752
vn 0.188086 0.901120 -0.390545
vn 0.197241 0.960295 -0.197241
vn -0.192969 0.898587 -0.394055
vn -0.390545 0.901120 -0.188086
vn -0.196814 0.971801 -0.129673
vn 0.227119 0.892788 0.388989
vn 0.394543 0.910306 0.125126
vn 0.129673 0.971801 0.196814
vn -0.394971 0.903592 0.165777
vn -0.165777 0.903592 0.394971
vn -0.194861 0.961241 0.194861
vn -0.209143 0.784417 0.583850
vn -0.388989 -0.892788 -0.227119
vn -0.125126 -0.910306 -0.394543
vn -0.196814 -0.971801 -0.129673
vn 0.390759 0.232002 -0.890744
vn 0.236274 0.155675 -0.959105
vn 0.165777 0.394971 -0.903592
vn -0.168950 0.168950 -0.971007
vn -0.388989 0.227119 -0.892788
vn -0.188086 0.390545 -0.901120
vn 0.155675 -0.155675 -0.975433
vn 0.394543 -0.125126 -0.910306
vn 0.192969 -0.394055 -0.898587
vn -0.394971 -0.165777 -0.903592
vn -0.155675 -0.236274 -0.959105
vn -0.232002 -0.390759 -0.890744
vn -0.583850 -0.209143 -0.784417
vn -0.187780 0.522050 -0.831965
vn -0.540971 0.158971 -0.825861
vn -0.540574 0.826106 -0.159062
vn 0.394971 -0.165777 0.903592
vn 0.155675 -0.155675 0.975433
vn 0.236274 0.155675 0.959105
vn 0.129673 -0.971801 0.196814
vn 0.961241 0.194861 -0.194861
vn 0.910306 0.125126 -0.394543
vn 0.898587 0.394055 -0.192969
vn 0.903592 0.165777 0.394971
vn 0.971801 0.196814 0.129673
vn 0.890744 0.390759 0.232002
vn 0.890744 -0.232002 -0.390759
vn 0.971801 -0.129673 -0.196814
vn 0.903592 -0.394971 -0.165777
vn 0.960295 -0.197241 0.197241
vn 0.901120 -0.188086 0.390545
vn 0.884518 -0.389477 0.256752
vn 0.826106 -0.159062 0.540574
vn 0.817499 0.563066 0.120823
vn 0.529344 0.807672 0.259682
vn 0.158971 0.825861 0.540971
vn 0.227119 -0.892788 -0.388989
vn 0.390545 -0.901120 -0.188086
vn 0.197241 -0.960295 -0.197241
vn 0.784417 -0.583850 -0.209143
vn 0.553026 -0.238685 -0.798212
vn 0.737419 0.476302 -0.478835
vn 0.495010 0.442396 -0.747795
vn 0.485672 0.725547 -0.487503
vn 0.798212 0.238685 -0.553026
vn 0.209143 0.583850 -0.784417
vn 0.159062 0.826106 -0.540574
vn 0.563066 0.817499 -0.120823
vn 0.563066 0.120823 -0.817499
vn 0.784417 0.583850 -0.209143
vn 0.209143 -0.583850 -0.784417
vn 0.817499 -0.120823 -0.563066
vn 0.784417 0.209143 0.583850
vn 0.817499 -0.563066 0.120823
vn -0.209143 0.784417 -0.583850
vn -0.120823 -0.563066 -0.817499
vn -0.583850 0.784417 0.209143
vn -0.792810 0.591937 0.145024
vn -0.784417 -0.583850 -0.209143
vn -0.583850 -0.209143 0.784417
vn -0.817499 -0.120823 0.563066
vn -0.784417 0.209143 -0.583850
vn 0.583850 -0.784417 0.209143
vn -0.209143 -0.784417 0.583850
vn 0.583850 -0.209143 0.784417
vn 0.209143 0.583850 0.784417
vn -0.120823 0.563066 0.817499
usemtl (null)
s 1
f 9//1 5//2 7//3
f 12//4 11//5 7//3
f 14//6 1//7 13//8
f 19//9 21//10 4//11
f 25//12 26//13 8//14
f 28//15 31//16 30//17
f 40//18 39//19 34//20
f 45//21 42//22 43//23
f 46//24 47//25 48//26
f 51//27 52//28 53//29
f 55//30 58//31 57//32
f 64//33 63//34 62//35
f 69//36 68//37 67//38
f 74//39 73//40 70//41
f 72//42 73//40 75//43
f 67//38 11//5 70//41
f 80//44 66//45 68//37
f 86//46 47//25 44//47
f 90//48 89//49 40//18
f 30//17 32//50 29//51
f 93//52 21//10 22//53
f 16//54 61//55 17//56
f 13//8 1//7 2//57
f 6//58 25//12 8//14
f 23//59 3//60 4//11
f 64//33 82//61 63//34
f 100//62 99//63 96//64
f 98//65 101//66 95//67
f 103//68 102//69 97//70
f 105//71 104//72 94//73
f 59//74 104//72 17//56
f 77//75 36//76 76//77
f 112//78 108//79 111//80
f 109//81 113//82 110//83
f 107//84 114//85 115//86
f 117//87 106//88 116//89
f 91//90 117//87 31//16
f 93//52 119//91 92//92
f 101//66 98//65 20//93
f 49//94 81//95 48//26
f 83//96 51//27 53//29
f 42//22 45//21 78//97
f 124//98 128//99 127//100
f 129//101 123//102 126//103
f 130//104 125//105 131//106
f 122//107 133//108 132//109
f 133//108 85//110 132//109
f 137//111 58//31 126//103
f 57//32 134//112 56//113
f 37//114 38//115 79//116
f 88//117 89//49 131//106
f 114//85 138//118 115//86
f 144//119 143//120 142//121
f 128//99 140//122 127//100
f 120//123 143//120 111//80
f 99//63 100//62 121//124
f 100//62 135//125 142//121
f 100//62 142//121 121//124
f 143//120 141//126 112//78
f 143//120 112//78 111//80
f 142//121 143//120 120//123
f 142//121 120//123 121//124
f 140//122 144//119 127//100
f 144//119 136//127 127//100
f 136//127 144//119 142//121
f 136//127 142//121 135//125
f 143//120 144//119 140//122
f 143//120 140//122 141//126
f 138//118 90//48 115//86
f 90//48 35//128 115//86
f 114//85 112//78 141//126
f 114//85 141//126 138//118
f 89//49 139//129 130//104
f 89//49 130//104 131//106
f 139//129 140//122 128//99
f 139//129 128//99 130//104
f 138//118 139//129 89//49
f 138//118 89//49 90//48
f 141//126 140//122 139//129
f 141//126 139//129 138//118
f 134//112 102//69 103//68
f 134//112 103//68 56//113
f 135//125 100//62 102//69
f 135//125 102//69 134//112
f 58//31 84//130 129//101
f 58//31 129//101 126//103
f 58//31 137//111 134//112
f 58//31 134//112 57//32
f 127//100 136//127 137//111
f 127//100 137//111 126//103
f 137//111 136//127 135//125
f 137//111 135//125 134//112
f 85//110 86//46 132//109
f 86//46 87//131 132//109
f 129//101 84//130 85//110
f 129//101 85//110 133//108
f 87//131 88//117 131//106
f 87//131 131//106 132//109
f 122//107 123//102 129//101
f 122//107 129//101 133//108
f 131//106 125//105 122//107
f 131//106 122//107 132//109
f 128//99 124//98 125//105
f 128//99 125//105 130//104
f 123//102 124//98 127//100
f 123//102 127//100 126//103
f 125//105 124//98 123//102
f 125//105 123//102 122//107
f 79//116 38//115 42//22
f 79//116 42//22 78//97
f 49//94 51//27 83//96
f 49//94 83//96 81//95
f 98//65 118//132 22//53
f 98//65 22//53 20//93
f 119//91 110//83 113//82
f 119//91 113//82 92//92
f 118//132 119//91 93//52
f 118//132 93//52 22//53
f 98//65 99//63 121//124
f 98//65 121//124 118//132
f 119//91 120//123 111//80
f 119//91 111//80 110//83
f 121//124 120//123 119//91
f 121//124 119//91 118//132
f 117//87 116//89 31//16
f 116//89 33//133 31//16
f 92//92 113//82 117//87
f 92//92 117//87 91//90
f 117//87 113//82 109//81
f 117//87 109//81 106//88
f 115//86 35//128 33//133
f 115//86 33//133 116//89
f 106//88 107//84 115//86
f 106//88 115//86 116//89
f 108//79 112//78 114//85
f 108//79 114//85 107//84
f 111//80 108//79 109//81
f 111//80 109//81 110//83
f 109//81 108//79 107//84
f 109//81 107//84 106//88
f 36//76 37//114 79//116
f 36//76 79//116 76//77
f 104//72 105//71 17//56
f 105//71 18//134 17//56
f 105//71 101//66 20//93
f 105//71 20//93 18//134
f 95//67 101//66 105//71
f 95//67 105//71 94//73
f 56//113 103//68 104//72
f 56//113 104//72 59//74
f 104//72 103//68 97//70
f 104//72 97//70 94//73
f 102//69 100//62 96//64
f 102//69 96//64 97//70
f 96//64 99//63 98//65
f 96//64 98//65 95//67
f 97//70 96//64 95//67
f 97//70 95//67 94//73
f 82//61 83//96 53//29
f 82//61 53//29 63//34
f 6//58 3//60 23//59
f 6//58 23//59 25//12
f 1//7 15//135 19//9
f 1//7 19//9 4//11
f 13//8 2//57 5//2
f 13//8 5//2 9//1
f 8//14 27//136 12//4
f 8//14 12//4 7//3
f 65//137 10//138 11//5
f 65//137 11//5 67//38
f 11//5 12//4 74//39
f 11//5 74//39 70//41
f 62//35 14//6 10//138
f 62//35 10//138 65//137
f 61//55 16//54 14//6
f 61//55 14//6 62//35
f 24//139 21//10 93//52
f 24//139 93//52 92//92
f 26//13 24//139 92//92
f 26//13 92//92 91//90
f 28//15 26//13 91//90
f 28//15 91//90 31//16
f 32//50 36//76 77//75
f 32//50 77//75 29//51
f 12//4 27//136 29//51
f 12//4 29//51 74//39
f 35//128 90//48 40//18
f 35//128 40//18 34//20
f 40//18 89//49 88//117
f 40//18 88//117 39//19
f 39//19 88//117 87//131
f 39//19 87//131 41//140
f 72//42 45//21 43//23
f 72//42 43//23 71//141
f 41//140 87//131 86//46
f 41//140 86//46 44//47
f 43//23 46//24 69//36
f 43//23 69//36 71//141
f 69//36 46//24 48//26
f 69//36 48//26 68//37
f 86//46 85//110 50//142
f 86//46 50//142 47//25
f 85//110 84//130 52//28
f 85//110 52//28 50//142
f 53//29 54//143 60//144
f 53//29 60//144 63//34
f 84//130 58//31 55//30
f 84//130 55//30 52//28
f 82//61 64//33 66//45
f 82//61 66//45 80//44
f 81//95 83//96 82//61
f 81//95 82//61 80//44
f 48//26 81//95 80//44
f 48//26 80//44 68//37
f 29//51 77//75 73//40
f 29//51 73//40 74//39
f 78//97 45//21 72//42
f 78//97 72//42 75//43
f 76//77 79//116 78//97
f 76//77 78//97 75//43
f 73//40 77//75 76//77
f 73//40 76//77 75//43
f 73//40 72//42 70//41
f 72//42 71//141 70//41
f 71//141 69//36 67//38
f 71//141 67//38 70//41
f 68//37 66//45 67//38
f 66//45 65//137 67//38
f 66//45 64//33 62//35
f 66//45 62//35 65//137
f 63//34 60//144 61//55
f 63//34 61//55 62//35
f 61//55 60//144 59//74
f 61//55 59//74 17//56
f 60//144 54//143 56//113
f 60//144 56//113 59//74
f 54//143 55//30 57//32
f 54//143 57//32 56//113
f 52//28 55//30 53//29
f 55//30 54//143 53//29
f 52//28 51//27 49//94
f 52//28 49//94 50//142
f 47//25 50//142 49//94
f 47//25 49//94 48//26
f 44//47 47//25 46//24
f 44//47 46//24 43//23
f 42//22 41//140 44//47
f 42//22 44//47 43//23
f 42//22 38//115 39//19
f 42//22 39//19 41//140
f 39//19 38//115 37//114
f 39//19 37//114 34//20
f 34//20 37//114 36//76
f 34//20 36//76 32//50
f 33//133 35//128 34//20
f 33//133 34//20 32//50
f 31//16 33//133 32//50
f 31//16 32//50 30//17
f 27//136 28//15 30//17
f 27//136 30//17 29//51
f 26//13 28//15 8//14
f 28//15 27//136 8//14
f 23//59 24//139 26//13
f 23//59 26//13 25//12
f 21//10 24//139 23//59
f 21//10 23//59 4//11
f 22//53 21//10 19//9
f 22//53 19//9 20//93
f 20//93 19//9 15//135
f 20//93 15//135 18//134
f 18//134 15//135 16//54
f 18//134 16//54 17//56
f 1//7 14//6 16//54
f 1//7 16//54 15//135
f 10//138 14//6 13//8
f 10//138 13//8 9//1
f 11//5 10//138 9//1
f 11//5 9//1 7//3
f 5//2 6//58 8//14
f 5//2 8//14 7//3
f 2//57 3//60 6//58
f 2//57 6//58 5//2
f 1//7 4//11 3//60
f 1//7 3//60 2//57
