# Blender3D v249 OBJ File: 
# www.blender3d.org
mtllib energy.mtl
v 0.705636 -0.000000 -0.708396
v 0.829999 -0.000000 -0.556859
v 0.922409 -0.000000 -0.383973
v 0.979315 -0.000000 -0.196380
v 0.998529 -0.000000 -0.001289
v 0.979315 0.000000 0.193801
v 0.922409 0.000000 0.381394
v 0.829999 0.000000 0.554281
v 0.705636 0.000000 0.705817
v 0.554100 0.000000 0.830180
v 0.381213 0.000000 0.922590
v 0.193620 0.000000 0.979496
v -0.001471 0.000000 0.998711
v -0.196561 0.000000 0.979496
v -0.384154 0.000000 0.922590
v -0.557041 0.000000 0.830180
v -0.708578 0.000000 0.705817
v -0.832941 0.000000 0.554280
v -0.925350 0.000000 0.381393
v -0.982256 0.000000 0.193800
v -1.001470 -0.000000 -0.001290
v -0.982256 -0.000000 -0.196381
v -0.925350 -0.000000 -0.383974
v -0.832939 -0.000000 -0.556861
v -0.708576 -0.000000 -0.708397
v -0.557040 -0.000000 -0.832760
v -0.384153 -0.000000 -0.925169
v -0.196559 -0.000000 -0.982075
v -0.001469 -0.000000 -1.001289
v 0.193622 -0.000000 -0.982074
v 0.381215 -0.000000 -0.925168
v 0.554101 -0.000000 -0.832758
v -0.001470 -0.000000 -0.001289
vn 0.000000 -1.000000 0.000000
usemtl Material.001
s 1
f 33//1 1//1 2//1
f 33//1 2//1 3//1
f 33//1 3//1 4//1
f 33//1 4//1 5//1
f 33//1 5//1 6//1
f 33//1 6//1 7//1
f 33//1 7//1 8//1
f 33//1 8//1 9//1
f 33//1 9//1 10//1
f 33//1 10//1 11//1
f 33//1 11//1 12//1
f 33//1 12//1 13//1
f 33//1 13//1 14//1
f 33//1 14//1 15//1
f 33//1 15//1 16//1
f 33//1 16//1 17//1
f 33//1 17//1 18//1
f 33//1 18//1 19//1
f 33//1 19//1 20//1
f 33//1 20//1 21//1
f 33//1 21//1 22//1
f 33//1 22//1 23//1
f 33//1 23//1 24//1
f 33//1 24//1 25//1
f 33//1 25//1 26//1
f 33//1 26//1 27//1
f 33//1 27//1 28//1
f 33//1 28//1 29//1
f 33//1 29//1 30//1
f 33//1 30//1 31//1
f 33//1 31//1 32//1
f 32//1 1//1 33//1
