# Blender3D v249 OBJ File: tank.blend
# www.blender3d.org
mtllib tank3.mtl
v -2.076937 3.033885 0.017482
v -2.378988 1.605750 0.020046
v -2.378988 1.608667 1.644018
v -2.076937 3.036801 1.641453
v 4.560308 1.664680 1.643918
v 3.586199 3.036801 1.641454
v 3.586199 3.033885 0.017482
v 4.560308 1.661763 0.019946
v -2.145368 0.043120 2.560775
v -2.598037 1.189780 2.558716
v -2.598037 1.188138 1.644779
v -2.145368 0.041479 1.646839
v 4.346429 0.041479 1.646839
v 4.391974 0.041479 1.646839
v 4.391974 0.043120 2.560775
v 5.092142 1.273164 2.558566
v 5.092142 1.271522 1.644630
v 4.560308 1.666321 2.557853
v -2.378988 1.610308 2.557954
v -2.292648 1.029472 1.645064
v 4.533139 1.244985 1.644674
v 4.533139 1.242069 0.020699
v -2.292648 1.026556 0.021086
v -2.076937 3.030968 -1.606490
v -2.378988 1.602834 -1.603926
v 3.586199 3.030968 -1.606490
v 4.560308 1.658847 -1.604026
v -2.145368 0.034005 -2.515054
v -2.145368 0.035646 -1.601118
v -2.598037 1.182305 -1.603177
v -2.598037 1.180664 -2.517113
v 4.391974 0.034005 -2.515054
v 4.391974 0.035646 -1.601118
v 4.346429 0.035646 -1.601118
v 5.092142 1.264048 -2.517263
v 5.092142 1.265689 -1.603327
v 4.560308 1.657205 -2.517962
v -2.378988 1.601192 -2.517862
v -2.292648 1.023639 -1.602892
v 4.533139 1.239152 -1.603276
v 2.068157 2.891023 -0.644608
v 2.068157 3.983744 -0.646570
v 2.068156 3.986042 0.633134
v 2.068156 2.893321 0.635097
v 0.404749 2.889874 -1.284459
v 0.404749 3.982595 -1.286422
v -0.703509 2.891023 -0.644608
v -0.703508 3.983744 -0.646570
v -0.703509 2.893321 0.635096
v -0.703508 3.986042 0.633134
v 0.404748 2.894470 1.274948
v 0.404748 3.987191 1.272985
v 0.428202 4.210983 -1.124651
v -0.539604 4.211987 -0.565890
v -0.539604 4.213994 0.551633
v 0.428201 4.214997 1.110395
v 1.880800 4.213994 0.551634
v 1.880800 4.211987 -0.565889
v 1.655477 3.279629 0.066095
v 6.054339 3.279629 0.066097
v 6.054339 3.500116 0.225686
v 1.655477 3.500116 0.225684
v 1.655477 3.363273 -0.192914
v 6.054339 3.363273 -0.192913
v 1.655477 3.635454 -0.193403
v 6.054339 3.635454 -0.193402
v 1.655477 3.720027 0.065304
v 6.054339 3.720027 0.065306
v 7.443755 3.117520 0.119093
v 7.443755 3.500422 0.396238
v 6.054339 3.500422 0.396237
v 6.054339 3.117520 0.119092
v 7.443755 3.262778 -0.330712
v 6.054339 3.262778 -0.330713
v 7.443755 3.735465 -0.331552
v 6.054339 3.735443 -0.331569
v 7.443755 3.882323 0.117732
v 6.054339 3.882331 0.117706
v 7.443755 3.225416 0.083820
v 7.443755 3.500219 0.282724
v 7.443755 3.329664 -0.238995
v 7.443755 3.668904 -0.239598
v 7.443755 3.774301 0.082845
v 6.715898 3.225416 0.083820
v 6.715898 3.500219 0.282724
v 6.715898 3.329664 -0.238995
v 6.715898 3.668904 -0.239598
v 6.715898 3.774302 0.082845
vt 0.186261 0.627459
vt 0.067007 0.627459
vt 0.067007 0.503638
vt 0.186261 0.503638
vt 0.024246 0.364942
vt 0.605059 0.370077
vt 0.523527 0.495853
vt 0.049527 0.495853
vt 0.618051 0.627459
vt 0.618051 0.503638
vt 0.632061 0.346541
vt 0.799972 0.346541
vt 0.799972 0.501914
vt 0.632061 0.501915
vt 0.015656 0.216218
vt 0.105007 0.216218
vt 0.105007 0.281245
vt 0.015656 0.281245
vt 0.026845 0.357411
vt 0.023410 0.357411
vt 0.023410 0.288482
vt 0.516454 0.357411
vt 0.516454 0.288482
vt 0.676871 0.215755
vt 0.772719 0.215755
vt 0.772719 0.280782
vt 0.676871 0.280783
vt 0.631510 0.215756
vt 0.631510 0.280783
vt 0.137776 0.280783
vt 0.137776 0.215756
vt 0.022018 0.159328
vt 0.066094 0.037051
vt 0.702633 0.037051
vt 0.770808 0.168220
vt 0.719024 0.210145
vt 0.043347 0.204172
vt 0.581818 0.682441
vt 0.565826 0.648816
vt 0.559522 0.695128
vt 0.548769 0.774126
vt 0.059192 0.644338
vt 0.020363 0.675774
vt 0.061176 0.677896
vt 0.071482 0.774126
vt 0.074807 0.774126
vt 0.632061 0.299017
vt 0.799972 0.299016
vt 0.018643 0.503637
vt 0.018643 0.627459
vt 0.184390 0.627459
vt 0.184390 0.503638
vt 0.065137 0.503638
vt 0.065137 0.627459
vt 0.676690 0.808647
vt 0.672384 0.941587
vt 0.470780 0.941587
vt 0.470932 0.808895
vt 0.861809 0.808558
vt 0.864147 0.941587
vt 0.994731 0.808558
vt 0.995074 0.941587
vt 0.007852 0.808615
vt 0.155094 0.808834
vt 0.163808 0.941587
vt 0.006665 0.941587
vt 0.287096 0.809053
vt 0.289208 0.941587
vt 0.988846 0.666498
vt 0.931789 0.765326
vt 0.817672 0.765326
vt 0.760613 0.666499
vt 0.817671 0.516380
vt 0.931788 0.516379
vt 0.660752 0.985216
vt 0.485195 0.985216
vt 0.854523 0.971215
vt 0.687910 0.971215
vt 0.985164 0.972222
vt 0.871238 0.972222
vt 0.154151 0.979233
vt 0.016770 0.979233
vt 0.282309 0.968920
vt 0.172189 0.969102
vt 0.454466 0.971904
vt 0.298825 0.971904
vt 0.890665 0.504293
vt 0.890664 0.163524
vt 0.913083 0.163524
vt 0.913084 0.504293
vt 0.869380 0.504293
vt 0.869379 0.163525
vt 0.846288 0.504293
vt 0.846287 0.163525
vt 0.825003 0.504293
vt 0.825002 0.163525
vt 0.935502 0.163524
vt 0.935503 0.504293
vt 0.946126 0.031526
vt 0.908625 0.031526
vt 0.908625 0.155942
vt 0.946127 0.155942
vt 0.986381 0.031526
vt 0.986382 0.155942
vt 0.830869 0.031526
vt 0.784513 0.031526
vt 0.784514 0.155943
vt 0.830868 0.155942
vt 0.871124 0.031526
vt 0.871123 0.155942
vt 0.705606 0.760552
vt 0.649448 0.759572
vt 0.628267 0.787680
vt 0.725793 0.789382
vt 0.633026 0.705860
vt 0.599749 0.694402
vt 0.679035 0.673644
vt 0.679646 0.638454
vt 0.723892 0.707445
vt 0.757548 0.697152
vt 0.678013 0.636744
vt 0.596530 0.695945
vt 0.619534 0.703419
vt 0.678013 0.660932
vt 0.627654 0.791734
vt 0.641871 0.772165
vt 0.728375 0.791731
vt 0.714157 0.772164
vt 0.759495 0.695942
vt 0.736491 0.703417
vt 0.934716 0.033783
vt 0.884871 0.033783
vt 0.884872 0.154488
vt 0.934717 0.154488
vt 0.865832 0.033783
vt 0.865833 0.154488
vt 0.804219 0.033784
vt 0.804220 0.154489
vt 0.785182 0.033784
vt 0.785183 0.154489
vt 0.984560 0.033783
vt 0.984560 0.154488
vn -0.978357 0.206922 -0.000372
vn 0.000000 0.001796 0.999998
vn 0.000000 0.999998 -0.001796
vn 0.815411 0.578882 -0.001040
vn -0.930144 -0.367194 0.000659
vn 0.000000 -0.999998 0.001796
vn 0.869068 -0.494691 0.000888
vn 0.594453 0.804129 -0.001444
vn -0.008072 0.999966 -0.001796
vn -0.886894 0.461973 -0.000830
vn -0.000000 0.001813 0.999998
vn -0.000000 0.001812 0.999998
vn -0.000006 -0.001807 -0.999998
vn -0.000000 -0.001796 -0.999998
vn 0.000006 -0.001802 -0.999998
vn 0.000006 -0.001799 -0.999998
vn 0.000000 -0.001799 -0.999998
vn 0.997911 -0.064599 0.000116
vn -0.989071 -0.147440 0.000265
vn -0.000000 -0.001779 -0.999998
vn -0.000000 -0.001780 -0.999998
vn -0.000006 0.001783 0.999998
vn 0.000006 0.001787 0.999998
vn 0.000000 0.001793 0.999998
vn 0.000006 0.001792 0.999998
vn 1.000000 0.000000 0.000001
vn 0.359018 -0.001676 -0.933329
vn -0.500000 -0.001555 -0.866024
vn -1.000000 0.000001 -0.000000
vn -0.500000 0.001555 0.866024
vn -0.500000 0.001556 0.866024
vn 0.359018 0.001676 0.933329
vn 0.772741 0.634721 -0.001139
vn 0.772742 0.634719 -0.001140
vn 0.304214 0.529613 -0.791810
vn 0.304214 0.529615 -0.791809
vn -0.415930 0.553691 -0.721407
vn -0.415928 0.553694 -0.721406
vn -0.812085 0.583539 -0.001048
vn -0.415929 0.556281 0.719412
vn -0.415930 0.556280 0.719413
vn 0.304214 0.532454 0.789903
vn -0.000000 -0.586331 0.810071
vn 0.000000 -0.951609 -0.307312
vn 0.000000 0.950500 -0.310725
vn -0.000000 0.589238 0.807959
vn -0.000001 -0.586331 0.810072
vn -0.000000 -0.586331 0.810072
vn 0.000000 -0.951610 -0.307309
vn 0.000001 -0.001778 -0.999998
vn 0.000012 -0.001812 -0.999998
vn -0.000011 0.950510 -0.310694
vn 0.000012 0.950489 -0.310757
vn -0.000012 0.589224 0.807970
vn -0.000001 0.589250 0.807951
vn -1.000000 0.000000 0.000000
vn 1.000000 0.000000 0.000000
vn 0.000000 0.586332 -0.810071
vn 0.000000 0.951610 0.307308
vn 0.000000 0.001779 0.999998
vn -0.000001 -0.950510 0.310693
vn 0.000000 -0.950510 0.310695
vn 0.000000 -0.589224 -0.807970
vn -0.000001 -0.589223 -0.807970
usemtl GreenColor
s off
f 1/1/1 2/2/1 3/3/1
f 4/4/1 1/1/1 3/3/1
f 3/5/2 5/6/2 6/7/2
f 6/7/2 4/8/2 3/5/2
f 7/9/3 1/1/3 6/10/3
f 1/1/3 4/4/3 6/10/3
f 5/11/4 8/12/4 7/13/4
f 7/13/4 6/14/4 5/11/4
f 9/15/5 10/16/5 11/17/5
f 11/17/5 12/18/5 9/15/5
f 13/19/6 14/20/6 15/21/6
f 12/22/6 13/19/6 15/21/6
f 12/22/6 15/21/6 9/23/6
f 16/24/7 15/25/7 14/26/7
f 14/26/7 17/27/7 16/24/7
f 18/28/8 16/24/8 17/27/8
f 17/27/8 5/29/8 18/28/8
f 5/29/9 3/30/9 19/31/9
f 19/31/9 18/28/9 5/29/9
f 10/16/10 19/31/10 3/30/10
f 3/30/10 11/17/10 10/16/10
f 10/32/2 9/33/2 15/34/2
f 10/32/2 15/34/2 16/35/2
f 10/32/11 16/35/11 18/36/11
f 19/37/12 10/32/12 18/36/12
f 11/38/13 3/39/13 20/40/13
f 12/41/14 11/38/14 20/40/14
f 5/42/15 17/43/15 21/44/15
f 21/44/16 17/43/16 14/45/16
f 14/45/17 13/46/17 21/44/17
f 12/41/14 20/40/14 21/44/14
f 21/44/17 13/46/17 12/41/17
f 21/47/18 22/48/18 8/12/18
f 8/12/18 5/11/18 21/47/18
f 20/49/19 3/3/19 2/2/19
f 2/2/19 23/50/19 20/49/19
f 1/51/1 24/52/1 25/53/1
f 2/54/1 1/51/1 25/53/1
f 25/5/14 24/8/14 26/7/14
f 26/7/14 27/6/14 25/5/14
f 24/52/3 1/51/3 26/10/3
f 1/51/3 7/9/3 26/10/3
f 27/11/4 26/14/4 7/13/4
f 7/13/4 8/12/4 27/11/4
f 28/15/5 29/18/5 30/17/5
f 30/17/5 31/16/5 28/15/5
f 29/22/6 28/23/6 32/21/6
f 32/21/6 33/20/6 34/19/6
f 29/22/6 32/21/6 34/19/6
f 35/24/7 36/27/7 33/26/7
f 33/26/7 32/25/7 35/24/7
f 37/28/8 27/29/8 36/27/8
f 36/27/8 35/24/8 37/28/8
f 27/29/9 37/28/9 38/31/9
f 38/31/9 25/30/9 27/29/9
f 31/16/10 30/17/10 25/30/10
f 25/30/10 38/31/10 31/16/10
f 32/34/14 28/33/14 31/32/14
f 35/35/14 32/34/14 31/32/14
f 37/36/20 35/35/20 31/32/20
f 38/37/21 37/36/21 31/32/21
f 30/38/22 39/40/22 25/39/22
f 29/41/2 39/40/2 30/38/2
f 27/42/23 40/44/23 36/43/23
f 40/44/24 34/46/24 33/45/24
f 33/45/25 36/43/25 40/44/25
f 29/41/24 34/46/24 40/44/24
f 40/44/2 39/40/2 29/41/2
f 40/47/18 27/11/18 8/12/18
f 8/12/18 22/48/18 40/47/18
f 39/49/19 23/50/19 2/54/19
f 2/54/19 25/53/19 39/49/19
f 41/55/26 42/56/26 43/57/26
f 43/57/26 44/58/26 41/55/26
f 41/55/27 45/59/27 46/60/27
f 46/60/27 42/56/27 41/55/27
f 45/59/28 47/61/28 48/62/28
f 48/62/28 46/60/28 45/59/28
f 47/63/29 49/64/29 50/65/29
f 50/65/29 48/66/29 47/63/29
f 49/64/30 51/67/30 52/68/30
f 52/68/31 50/65/31 49/64/31
f 51/67/32 44/58/32 43/57/32
f 43/57/32 52/68/32 51/67/32
f 53/69/3 54/70/3 55/71/3
f 53/69/3 55/71/3 56/72/3
f 53/69/3 56/72/3 57/73/3
f 58/74/3 53/69/3 57/73/3
f 43/57/33 42/56/33 58/75/33
f 58/75/34 57/76/34 43/57/34
f 42/56/35 46/60/35 53/77/35
f 53/77/36 58/78/36 42/56/36
f 46/60/37 48/62/37 54/79/37
f 54/79/38 53/80/38 46/60/38
f 48/66/39 50/65/39 55/81/39
f 55/81/39 54/82/39 48/66/39
f 50/65/40 52/68/40 56/83/40
f 56/83/41 55/84/41 50/65/41
f 52/68/42 43/57/42 57/85/42
f 57/85/42 56/86/42 52/68/42
f 59/87/43 60/88/43 61/89/43
f 61/89/43 62/90/43 59/87/43
f 63/91/44 64/92/44 60/88/44
f 60/88/44 59/87/44 63/91/44
f 65/93/14 66/94/14 64/92/14
f 64/92/14 63/91/14 65/93/14
f 67/95/45 68/96/45 66/94/45
f 66/94/45 65/93/45 67/95/45
f 62/90/46 61/89/46 68/97/46
f 68/97/46 67/98/46 62/90/46
f 69/99/47 70/100/47 71/101/47
f 71/101/48 72/102/48 69/99/48
f 73/103/49 69/99/49 72/102/49
f 72/102/49 74/104/49 73/103/49
f 75/105/50 73/106/50 74/107/50
f 74/107/51 76/108/51 75/105/51
f 77/109/52 75/105/52 76/108/52
f 76/108/53 78/110/53 77/109/53
f 70/100/54 77/109/54 78/110/54
f 78/110/55 71/101/55 70/100/55
f 61/111/56 60/112/56 72/113/56
f 72/113/56 71/114/56 61/111/56
f 60/112/56 64/115/56 74/116/56
f 74/116/56 72/113/56 60/112/56
f 64/115/56 66/117/56 76/118/56
f 76/118/56 74/116/56 64/115/56
f 66/117/56 68/119/56 78/120/56
f 78/120/56 76/118/56 66/117/56
f 68/119/56 61/111/56 71/114/56
f 71/114/56 78/120/56 68/119/56
f 70/121/57 69/122/57 79/123/57
f 79/123/57 80/124/57 70/121/57
f 69/122/57 73/125/57 81/126/57
f 81/126/57 79/123/57 69/122/57
f 73/125/57 75/127/57 82/128/57
f 82/128/57 81/126/57 73/125/57
f 75/127/57 77/129/57 83/130/57
f 83/130/57 82/128/57 75/127/57
f 77/129/57 70/121/57 80/124/57
f 80/124/57 83/130/57 77/129/57
f 80/131/58 79/132/58 84/133/58
f 84/133/58 85/134/58 80/131/58
f 79/132/59 81/135/59 86/136/59
f 86/136/59 84/133/59 79/132/59
f 81/135/60 82/137/60 87/138/60
f 87/138/60 86/136/60 81/135/60
f 82/137/61 83/139/61 88/140/61
f 88/140/62 87/138/62 82/137/62
f 83/141/63 80/131/63 85/134/63
f 85/134/64 88/142/64 83/141/64
